<svg width="25" height="25" viewBox="0 0 25 25" fill="none" xmlns="http://www.w3.org/2000/svg">
<g clip-path="url(#clip0_2_1392)">
<path d="M13.9037 6.92266C13.7377 6.98835 13.5894 7.04701 13.4488 7.0988L13.021 6.49281L13.3771 6.42947C14.0487 6.30998 14.6912 6.01762 15.2539 5.59171L15.6105 6.35587C15.0611 6.47777 14.5678 6.66234 14.1546 6.82383C14.0662 6.85838 13.983 6.89132 13.9037 6.92266ZM9.05028 23.9893C8.3485 23.9843 7.60385 23.5467 6.85661 22.7413C6.12731 21.9553 5.53267 20.9641 5.13283 20.1924L5.54506 19.9787L9.05028 23.9893ZM6.62534 23.2713C7.28768 23.9404 8.12494 24.5187 9.04698 24.525L4.65724 20.4389C5.2537 21.5901 5.92748 22.5663 6.62534 23.2713Z" fill="#16DBCC" stroke="#16DBCC" stroke-width="2"/>
</g>
<defs>
<clipPath id="clip0_2_1392">
<rect width="25" height="25" fill="white"/>
</clipPath>
</defs>
</svg>
