<svg width="80" height="56" viewBox="0 0 80 56" fill="none" xmlns="http://www.w3.org/2000/svg">
<path opacity="0.938" fill-rule="evenodd" clip-rule="evenodd" d="M0.0074643 33.8845C-0.0718835 33.831 0.478591 31.673 1.79279 26.8942C2.8372 23.0925 3.82112 19.5358 3.97684 18.9903L4.2615 18L8.36874 18.0766C13.1713 18.1654 13.9102 18.2299 14.6828 18.6272C16.0516 19.3321 16.4285 20.4151 15.9574 22.2918C15.5547 23.8891 14.787 24.9772 13.3022 26.0511C13.0205 26.2548 12.7745 26.5039 12.7567 26.6037C12.7348 26.7157 12.9104 26.9617 13.206 27.236C13.4738 27.4831 13.7565 27.8138 13.8368 27.9701C14.051 28.3937 14.0143 29.2387 13.7158 30.706C13.57 31.425 13.4232 32.4525 13.3885 32.989L13.329 33.9651H11.3403C9.93189 33.9651 9.31595 33.9288 9.22768 33.8391C9.03328 33.6414 9.07692 33.1382 9.41414 31.6962C9.78906 30.0918 9.81188 29.4616 9.50837 29.0703C9.10866 28.552 8.74465 28.4411 7.30845 28.3917C6.14799 28.3523 5.95458 28.3705 5.77902 28.5318C5.50527 28.7839 5.2831 29.4333 4.63443 31.8808L4.08296 33.9651L2.10324 33.9641C1.01419 33.9631 0.0709425 33.9278 0.0074643 33.8845ZM10.4586 24.9298C11.4018 24.6454 11.7995 24.0192 11.8015 22.8162C11.8015 22.4541 11.742 22.2 11.62 22.0498C11.3334 21.6988 10.4705 21.5799 8.85177 21.6666L7.44434 21.7442L7.23902 22.4461C6.92262 23.5291 6.70144 24.5768 6.73616 24.8239C6.75798 24.9853 6.86807 25.0669 7.13091 25.1194C7.70519 25.2343 9.85651 25.1113 10.4586 24.9298ZM17.1168 34.194C16.488 33.9661 15.9931 33.5386 15.7858 33.0455C15.391 32.1076 15.754 30.0223 17.1952 24.949C17.5404 23.7348 17.823 22.7284 17.823 22.7143C17.823 22.6992 17.8964 22.6135 17.9857 22.5227C18.1186 22.3866 18.4221 22.3563 19.6401 22.3563C20.4604 22.3563 21.2469 22.4007 21.3887 22.4552L21.6466 22.556L21.3897 23.4837C20.7589 25.7627 20.1033 28.5278 19.9912 29.392C19.8881 30.1776 19.892 30.3853 20.014 30.6455C20.2927 31.2374 21.3054 31.3614 22.1663 30.9117C23.177 30.3833 23.3665 29.9305 24.9901 24.1715C25.2282 23.3274 25.4107 22.8878 25.613 22.6679L25.8996 22.3553H27.5223C28.777 22.3553 29.1569 22.3876 29.1975 22.4965C29.2372 22.6044 27.1762 30.4095 26.3073 33.4377L26.1704 33.9127L24.4357 33.9651C23.4815 33.9954 22.7019 33.9883 22.7019 33.952C22.7019 33.9157 22.7723 33.6828 22.8586 33.4337C23.2098 32.4223 22.7723 32.3598 21.4948 33.2361C20.2322 34.1023 19.7036 34.307 18.6106 34.3544C17.8716 34.3856 17.5473 34.3514 17.1168 34.194ZM28.649 33.8814C28.5568 33.8209 29.0914 31.7275 30.6734 25.9412L32.8237 18.0817L36.4569 18.1119C40.9896 18.1513 41.915 18.2329 42.7918 18.6716C43.5119 19.0316 43.8551 19.3543 44.1754 19.9724C44.715 21.0111 44.7061 22.2162 44.1467 23.8689C43.2877 26.4101 41.6839 28.0801 39.5703 28.6367C39.2281 28.7275 38.1539 28.8485 37.1829 28.908C33.9763 29.1026 34.1697 29.0663 33.9981 29.513C33.9158 29.7268 33.5954 30.8169 33.2859 31.9332L32.7236 33.9651L30.7498 33.9641C29.6627 33.9631 28.7185 33.9258 28.649 33.8814ZM37.9982 25.4219C39.0545 25.2837 39.6099 24.952 39.9621 24.2491C40.3409 23.4948 40.4411 22.672 40.2001 22.2978C39.8708 21.7866 39.4195 21.6757 37.7225 21.6847C36.8774 21.6888 36.1434 21.7351 36.0929 21.7866C35.9768 21.9056 35.2627 24.7745 35.2627 25.1234C35.2627 25.2646 35.2934 25.4128 35.3321 25.4521C35.4303 25.552 37.1541 25.5328 37.9982 25.4219ZM43.9304 34.2374C42.7085 33.7171 42.3911 32.8569 42.7898 31.1386C43.3462 28.7375 44.5732 27.9348 48.7845 27.2148C51.3276 26.7792 51.9624 26.4616 52.1449 25.5318C52.2808 24.8441 51.7006 24.4689 50.5034 24.4669C49.7556 24.4669 49.4759 24.5779 48.8272 25.1295L48.3045 25.5752L46.9576 25.6105C45.3974 25.6508 44.9173 25.5873 44.9173 25.3422C44.9173 25.0558 45.5293 24.1815 46.1006 23.6501C46.7155 23.0794 47.5289 22.6417 48.4096 22.4098C50.2584 21.9197 53.4423 21.9762 54.5363 22.5187C55.1215 22.8091 55.6422 23.2911 55.8901 23.7731C56.1242 24.2289 56.0409 24.7019 54.935 29.1581C54.3924 31.3463 53.9481 33.3228 53.9481 33.5507V33.9651H52.6656C51.9604 33.9651 51.1679 33.9954 50.9031 34.0327L50.4241 34.0993L50.2128 33.5991C49.9648 33.0112 49.9361 33.0112 48.6308 33.6092C47.2135 34.2566 46.6937 34.4018 45.5928 34.4542C44.6555 34.4986 44.4928 34.4774 43.9304 34.2374ZM49.5106 31.7718C50.2257 31.4492 51.035 30.1322 51.039 29.2801L51.042 28.8686L50.3824 28.9312C49.6524 29.0017 48.1091 29.507 47.5437 29.8619C47.0657 30.1624 46.786 30.6465 46.787 31.1688C46.7889 31.67 46.8613 31.8071 47.2035 31.9554C47.5943 32.1248 48.969 32.0159 49.5106 31.7718ZM55.2276 38.9648C54.811 38.87 54.7961 38.7127 55.0847 37.5531C55.4716 36.0021 55.4468 36.0344 56.4039 35.8831C57.4354 35.7198 57.8966 35.4899 58.1267 35.0209C58.3817 34.5016 58.3628 32.4646 58.0543 27.0001C57.8828 23.9587 57.8401 22.5792 57.9155 22.4874C57.9928 22.3916 58.5185 22.3563 59.8714 22.3563H61.7212L61.7539 25.8858C61.7758 28.2959 61.8234 29.4545 61.9007 29.5342C62.0902 29.7258 62.7845 28.5318 65.6311 23.1207L66.0338 22.3563H67.6663C68.565 22.3563 69.3217 22.3926 69.3485 22.437C69.4011 22.5227 66.9264 27.0071 64.4438 31.3271C60.9148 37.4673 60.2503 38.3134 58.5949 38.7823C58.0543 38.9356 55.664 39.0647 55.2276 38.9648Z" fill="white"/>
<path fill-rule="evenodd" clip-rule="evenodd" d="M70.5269 37.5571L75.38 19.4823L80 28.8232L70.5269 37.5571Z" fill="white"/>
<path fill-rule="evenodd" clip-rule="evenodd" d="M67.5237 37.6226L72.3768 19.5489L76.9968 28.8888L67.5237 37.6226Z" fill="white"/>
</svg>
