<svg width="80" height="56" viewBox="0 0 80 56" fill="none" xmlns="http://www.w3.org/2000/svg">
<path d="M74.0733 40.7568L73.3233 36.9681H64.9433L63.61 40.7299L56.8933 40.7434C60.0909 32.9744 63.2954 25.2082 66.5067 17.445C67.0533 16.1282 68.0233 15.458 69.4533 15.4648C70.5467 15.4749 72.33 15.4749 74.8067 15.4681L80 40.7467L74.0733 40.7568ZM66.83 31.7783H72.23L70.2133 22.2812L66.83 31.7783ZM23.5333 15.4614L30.2867 15.4681L19.8467 40.7602L13.01 40.7535C11.2908 34.0728 9.59304 27.3866 7.91667 20.6949C7.58333 19.3613 6.92333 18.4284 5.65333 17.9872C4.52333 17.5932 2.64 16.987 0 16.1619V15.4715H10.79C12.6567 15.4715 13.7467 16.3842 14.0967 18.2566C14.45 20.1325 15.3367 24.908 16.7633 32.5832L23.5333 15.4614ZM39.5667 15.4681L34.2267 40.7535L27.8 40.7467L33.1333 15.4614L39.5667 15.4681ZM52.6 15C54.5233 15 56.9467 15.6062 58.34 16.1619L57.2133 21.4055C55.9533 20.8936 53.88 20.2032 52.1367 20.2268C49.6033 20.2706 48.0367 21.3449 48.0367 22.3755C48.0367 24.0526 50.7567 24.8979 53.5567 26.73C56.7533 28.818 57.1733 30.6939 57.1333 32.7314C57.09 36.9613 53.5567 41.134 46.1033 41.134C42.7033 41.0835 41.4767 40.7939 38.7033 39.8004L39.8767 34.3277C42.7 35.5233 43.8967 35.9038 46.31 35.9038C48.52 35.9038 50.4167 35.0013 50.4333 33.4285C50.4467 32.3104 49.7667 31.7547 47.2867 30.3739C44.8067 28.9898 41.3267 27.0735 41.3733 23.2275C41.43 18.3038 46.0467 15 52.6033 15H52.6Z" fill="black"/>
</svg>
