<svg width="31" height="31" viewBox="0 0 31 31" fill="none" xmlns="http://www.w3.org/2000/svg">
<path d="M15.5 0C12.4344 0 9.43763 0.909059 6.88867 2.61222C4.3397 4.31538 2.35303 6.73615 1.17987 9.5684C0.00671589 12.4007 -0.300236 15.5172 0.297835 18.5239C0.895906 21.5306 2.37214 24.2924 4.53985 26.4601C6.70756 28.6279 9.4694 30.1041 12.4761 30.7022C15.4828 31.3002 18.5993 30.9933 21.4316 29.8201C24.2638 28.647 26.6846 26.6603 28.3878 24.1113C30.0909 21.5624 31 18.5656 31 15.5C31 11.3891 29.367 7.44666 26.4602 4.53984C23.5533 1.63303 19.6109 0 15.5 0V0ZM15.5 28.7857C12.8723 28.7857 10.3037 28.0065 8.11886 26.5467C5.93403 25.0868 4.23117 23.0119 3.22561 20.5842C2.22004 18.1566 1.95694 15.4853 2.46957 12.9081C2.98221 10.3309 4.24755 7.96362 6.10559 6.10558C7.96363 4.24754 10.3309 2.9822 12.9081 2.46957C15.4853 1.95693 18.1566 2.22004 20.5842 3.2256C23.0119 4.23116 25.0868 5.93403 26.5467 8.11885C28.0065 10.3037 28.7857 12.8723 28.7857 15.5C28.7857 19.0236 27.386 22.4029 24.8944 24.8944C22.4029 27.386 19.0236 28.7857 15.5 28.7857Z" fill="#001AFF"/>
<path d="M15.4998 8.85706C14.186 8.85706 12.9016 9.24665 11.8092 9.97658C10.7168 10.7065 9.86538 11.744 9.36259 12.9578C8.85981 14.1716 8.72826 15.5073 8.98458 16.7959C9.24089 18.0845 9.87356 19.2681 10.8026 20.1971C11.7316 21.1261 12.9152 21.7588 14.2038 22.0151C15.4924 22.2714 16.8281 22.1399 18.0419 21.6371C19.2557 21.1343 20.2932 20.2829 21.0231 19.1905C21.753 18.0981 22.1426 16.8137 22.1426 15.4999C22.1426 13.7381 21.4428 12.0485 20.197 10.8027C18.9512 9.55693 17.2616 8.85706 15.4998 8.85706Z" fill="#001AFF"/>
</svg>
