<svg width="60" height="60" viewBox="0 0 60 60" fill="none" xmlns="http://www.w3.org/2000/svg">
<rect width="60" height="60" rx="20" fill="#FFF5D9"/>
<path d="M29.5549 43.0001L33.0674 23.2459C36.4153 23.2459 37.4714 23.613 37.6239 25.1115C37.6239 25.1115 39.8698 24.2741 41.0025 22.5733C36.5822 20.525 32.1407 20.4326 32.1407 20.4326L29.5491 23.5892L29.5549 23.5888L26.9632 20.4321C26.9632 20.4321 22.5217 20.5246 18.1019 22.5729C19.2337 24.2737 21.4805 25.1111 21.4805 25.1111C21.6339 23.6125 22.6886 23.2454 26.0141 23.243L29.5549 43.0001Z" fill="#FFBB38"/>
<path d="M29.5536 19.5208C33.1268 19.4935 37.2168 20.0735 41.4037 21.8984C41.9633 20.8912 42.1071 20.446 42.1071 20.446C37.5302 18.6352 33.244 18.0155 29.5531 18C25.8623 18.0155 21.5763 18.6353 17 20.446C17 20.446 17.2042 20.9943 17.703 21.8984C21.8891 20.0735 25.9797 19.4935 29.5531 19.5208H29.5536" fill="#FFBB38"/>
</svg>
