<svg width="141" height="77" viewBox="0 0 141 77" fill="none" xmlns="http://www.w3.org/2000/svg">
<g filter="url(#filter0_d_2_2811)">
<rect x="5.40332" y="0.70166" width="130.597" height="65.2983" rx="10" fill="#F2F2F2" fill-opacity="0.8" shape-rendering="crispEdges"/>
</g>
<path d="M89.9061 25.4926C92.3743 25.4926 94.2817 26.2094 95.7404 27.643C97.1989 29.0765 97.8719 30.9879 97.8719 33.3772V44.8455H94.7305V42.2176H94.6183C93.272 44.368 91.3646 45.4432 89.1207 45.4432C87.2133 45.4432 85.5303 44.8457 84.1841 43.6512C82.9499 42.4566 82.1644 40.7841 82.1644 38.9922C82.1644 37.0808 82.8378 35.5276 84.1841 34.333C85.5303 33.1384 87.4377 32.6606 89.6817 32.6606C91.7011 32.6606 93.272 33.0191 94.506 33.8552V33.0191C94.506 31.904 94.1152 30.7891 93.3332 30.0626L93.1596 29.913C92.2621 29.0767 91.1401 28.5989 89.9061 28.5989C87.9987 28.5989 86.5402 29.4352 85.5303 31.1076L82.6134 29.1958C84.4084 26.687 86.7645 25.4926 89.9061 25.4926ZM74.0864 17.369C76.0995 17.369 78.0127 18.115 79.5424 19.506L79.8084 19.7581C81.3792 21.1917 82.1644 23.3422 82.1644 25.6119C82.1644 27.8817 81.3792 29.9126 79.8084 31.4656C78.2376 33.0187 76.3303 33.8548 74.0864 33.8548L68.701 33.7353V44.8455H65.335V17.369H74.0864ZM90.3547 35.5274C89.0084 35.5274 87.8865 35.8858 86.989 36.6026C86.0913 37.1999 85.6426 38.036 85.6426 39.1111C85.6426 40.067 86.0915 40.9031 86.7645 41.3811C87.55 41.9784 88.4475 42.3367 89.3451 42.3367C90.6016 42.3367 91.8582 41.8163 92.8412 40.8728L93.0476 40.6643C94.1695 39.5891 94.7305 38.275 94.7305 36.8414C93.7208 36.0053 92.2621 35.5273 90.3549 35.5273M74.311 20.7137H68.7012V30.2713H74.311C75.545 30.2713 76.7792 29.7935 77.5647 28.8379C79.3597 27.0459 79.3597 24.0593 77.6769 22.2672L77.5647 22.1477C76.667 21.1921 75.545 20.5948 74.3109 20.7143M116.048 26.0899L104.94 53.2081H101.575L105.726 43.7705L98.4329 26.2094H102.023L107.296 39.7086H107.409L112.57 26.2094H116.048V26.0899Z" fill="#5F6368"/>
<path d="M55.3497 31.3462C55.3497 30.2711 55.2375 29.196 55.1253 28.1208H41.1011V34.2135H49.0669C48.7304 36.1247 47.7206 37.9167 46.1499 38.992V42.9342H50.9743C53.7792 40.1866 55.3499 36.1247 55.3499 31.3464" fill="#4285F4"/>
<path d="M41.1009 46.7571C45.1399 46.7571 48.5057 45.3235 50.9741 42.9342L46.1498 38.992C44.8033 39.9476 43.1204 40.5449 41.1009 40.5449C37.2861 40.5449 33.9202 37.7974 32.7982 33.9745H27.8618V38.0362C30.4423 43.412 35.4911 46.7571 41.1009 46.7571Z" fill="#34A853"/>
<path d="M32.798 33.9745C32.125 32.0631 32.125 29.9128 32.798 27.8819V23.8202H27.8616C25.7297 28.2404 25.7297 33.4967 27.8616 38.0362L32.798 33.9745Z" fill="#FBBC04"/>
<path d="M41.1007 21.4308C43.2324 21.4308 45.2518 22.2672 46.8227 23.8201L51.0861 19.2806C48.3933 16.6523 44.8031 15.0994 41.2127 15.2187C35.6029 15.2187 30.442 18.5638 27.9736 23.9396L32.9102 28.0013C33.92 24.1784 37.2859 21.4308 41.1007 21.4308Z" fill="#EA4335"/>
<defs>
<filter id="filter0_d_2_2811" x="0.40332" y="0.70166" width="140.597" height="76.2983" filterUnits="userSpaceOnUse" color-interpolation-filters="sRGB">
<feFlood flood-opacity="0" result="BackgroundImageFix"/>
<feColorMatrix in="SourceAlpha" type="matrix" values="0 0 0 0 0 0 0 0 0 0 0 0 0 0 0 0 0 0 127 0" result="hardAlpha"/>
<feOffset dy="6"/>
<feGaussianBlur stdDeviation="2.5"/>
<feComposite in2="hardAlpha" operator="out"/>
<feColorMatrix type="matrix" values="0 0 0 0 0 0 0 0 0 0 0 0 0 0 0 0 0 0 0.1 0"/>
<feBlend mode="normal" in2="BackgroundImageFix" result="effect1_dropShadow_2_2811"/>
<feBlend mode="normal" in="SourceGraphic" in2="effect1_dropShadow_2_2811" result="shape"/>
</filter>
</defs>
</svg>
