<svg width="44" height="46" viewBox="0 0 44 46" fill="none" xmlns="http://www.w3.org/2000/svg">
<path d="M20.0532 46C16.0917 46 12.8657 42.7762 12.8657 38.8125C12.8657 38.019 13.5097 37.375 14.3032 37.375C15.0967 37.375 15.7407 38.019 15.7407 38.8125C15.7407 41.1913 17.6766 43.125 20.0532 43.125C22.4299 43.125 24.3657 41.1913 24.3657 38.8125C24.3657 38.019 25.0097 37.375 25.8032 37.375C26.5967 37.375 27.2407 38.019 27.2407 38.8125C27.2407 42.7762 24.0151 46 20.0532 46V46Z" fill="#FE5C73"/>
<path d="M35.8658 40.25H4.24077C2.39125 40.25 0.886719 38.7455 0.886719 36.896C0.886719 35.9143 1.31418 34.985 2.0596 34.3466C2.10768 34.3045 2.15927 34.2663 2.21297 34.2315C5.02655 31.7763 6.63672 28.2439 6.63672 24.514V19.1665C6.63672 11.7685 12.657 5.75 20.0533 5.75C20.36 5.75 20.6917 5.75562 20.9984 5.80756C21.7821 5.93776 22.3113 6.67967 22.1807 7.46159C22.0505 8.24352 21.2953 8.77275 20.5267 8.6422C20.3733 8.61728 20.2049 8.625 20.0533 8.625C14.2422 8.625 9.51172 13.3534 9.51172 19.1665V24.514C9.51172 29.1448 7.48181 33.5265 3.94772 36.5334C3.91895 36.5566 3.89403 36.5776 3.86314 36.5987C3.81155 36.664 3.76172 36.7636 3.76172 36.896C3.76172 37.1564 3.98036 37.375 4.24077 37.375H35.8658C36.1265 37.375 36.3452 37.1564 36.3452 36.896C36.3452 36.7615 36.2953 36.664 36.2416 36.5987C36.2129 36.5776 36.1879 36.5566 36.1592 36.5334C32.623 33.5244 30.5952 29.1448 30.5952 24.514V22.4251C30.5952 21.6316 31.2392 20.9876 32.0327 20.9876C32.8262 20.9876 33.4702 21.6316 33.4702 22.4251V24.514C33.4702 28.246 35.0821 31.7801 37.8995 34.2375C37.9511 34.2719 38.001 34.3084 38.0469 34.3487C38.7927 34.985 39.2202 35.9143 39.2202 36.896C39.2202 38.7455 37.7156 40.25 35.8658 40.25V40.25Z" fill="#FE5C73"/>
<path d="M33.4702 19.1665C28.1859 19.1665 23.8867 14.8677 23.8867 9.58345C23.8867 4.29916 28.1859 0 33.4702 0C38.7545 0 43.0533 4.29916 43.0533 9.58345C43.0533 14.8677 38.7545 19.1665 33.4702 19.1665V19.1665ZM33.4702 2.875C29.7708 2.875 26.7617 5.88406 26.7617 9.58345C26.7617 13.2825 29.7708 16.2915 33.4702 16.2915C37.1692 16.2915 40.1783 13.2825 40.1783 9.58345C40.1783 5.88406 37.1692 2.875 33.4702 2.875V2.875Z" fill="#FE5C73"/>
</svg>
