<svg width="55" height="55" viewBox="0 0 55 55" fill="none" xmlns="http://www.w3.org/2000/svg">
<circle cx="27.5" cy="27.5" r="27.5" fill="#E7EDFF"/>
<path d="M36.9948 22.3825C36.981 20.8522 36.3639 19.3891 35.2777 18.3111C34.1915 17.2331 32.7239 16.6272 31.1935 16.625H22.7498C22.5401 16.6223 22.3363 16.695 22.1757 16.8299C22.0151 16.9648 21.9083 17.1529 21.8748 17.36L18.8823 36.1287C18.8636 36.253 18.8719 36.3798 18.9066 36.5006C18.9414 36.6214 19.0017 36.7333 19.0835 36.8287C19.1649 36.9263 19.2665 37.0051 19.3813 37.0595C19.4962 37.1139 19.6215 37.1426 19.7485 37.1437H23.3623L23.1698 38.3599C23.1494 38.486 23.1567 38.615 23.1915 38.7379C23.2262 38.8608 23.2874 38.9746 23.3708 39.0713C23.4542 39.1681 23.5577 39.2454 23.6741 39.2978C23.7906 39.3503 23.9171 39.3766 24.0448 39.3749H28.1135C28.322 39.378 28.5247 39.3065 28.6851 39.1733C28.8455 39.0402 28.9531 38.8541 28.9885 38.6487L29.8635 33.3024H32.6198C34.3449 33.2955 35.9972 32.6059 37.2154 31.3844C38.4336 30.1629 39.1187 28.5088 39.121 26.7837V26.5387C39.1202 25.7272 38.927 24.9275 38.5574 24.205C38.1878 23.4826 37.6523 22.858 36.9948 22.3825V22.3825ZM23.4935 18.375H31.1935C32.1116 18.3778 33.0015 18.6916 33.7182 19.2653C34.4349 19.839 34.936 20.6386 35.1398 21.5337C34.7613 21.4449 34.3736 21.4009 33.9848 21.4025H26.6873C26.4776 21.3998 26.2738 21.4725 26.1132 21.6074C25.9526 21.7423 25.8458 21.9304 25.8123 22.1375L25.296 25.375C25.2589 25.607 25.3155 25.8443 25.4533 26.0347C25.5912 26.225 25.799 26.3528 26.031 26.39C26.2631 26.4271 26.5004 26.3705 26.6908 26.2327C26.8811 26.0948 27.0089 25.887 27.046 25.655L27.4485 23.135H34.0023C34.4217 23.1372 34.8371 23.2173 35.2273 23.3712C35.061 24.741 34.4001 26.0028 33.3689 26.9196C32.3377 27.8365 31.0071 28.3451 29.6273 28.35H25.5673C25.3588 28.3469 25.1562 28.4184 24.9957 28.5516C24.8353 28.6847 24.7277 28.8708 24.6923 29.0762L23.6248 35.3937H20.7723L23.4935 18.375ZM37.371 26.7837C37.3688 28.0447 36.868 29.2537 35.978 30.147C35.0879 31.0403 33.8808 31.5455 32.6198 31.5524H29.1198C28.9113 31.5494 28.7087 31.6209 28.5482 31.7541C28.3878 31.8872 28.2802 32.0733 28.2448 32.2787L27.3698 37.6249H25.0598L25.2523 36.4087L26.3023 30.1175H29.6098C31.2433 30.1126 32.8293 29.5677 34.1208 28.5674C35.4123 27.5672 36.3366 26.1678 36.7498 24.5875C37.1559 25.1569 37.3732 25.8393 37.371 26.5387V26.7837Z" fill="#396AFF"/>
</svg>
