<svg width="70" height="70" viewBox="0 0 70 70" fill="none" xmlns="http://www.w3.org/2000/svg">
<circle cx="35" cy="35" r="35" fill="#FFE0EB"/>
<g clip-path="url(#clip0_2_1871)">
<path d="M35.879 35.8783V20C27.3739 20.4461 20.4468 27.3731 20.0007 35.8783H35.879ZM32.3635 33.2416H30.6058V31.4839H32.3635V33.2416ZM27.0903 27.9684H28.848V29.7262H27.0903V27.9684ZM31.4846 27.6045L32.7274 28.8473L27.9692 33.6056L26.7264 32.3628L31.4846 27.6045Z" fill="#FF82AC"/>
<path d="M35.879 37.636H25.3661C25.7944 43.2371 30.278 47.7207 35.8791 48.149V37.636H35.879Z" fill="#FF82AC"/>
<path d="M37.6366 23.5154C37.6366 23.7042 37.6366 50.2062 37.6366 49.9987C44.496 49.5431 49.9994 43.6422 49.9994 36.6693C49.9994 29.6958 44.4977 23.9694 37.6366 23.5154ZM42.9098 35.8782C44.3637 35.8782 45.5464 37.0609 45.5464 38.5148C45.5464 39.6591 44.8095 40.6255 43.7887 40.9895V42.9091H42.031V40.9895C41.0102 40.6255 40.2732 39.6591 40.2732 38.5148H42.031C42.031 38.9997 42.4249 39.3936 42.9098 39.3936C43.3947 39.3936 43.7887 38.9997 43.7887 38.5148C43.7887 38.0299 43.3947 37.6359 42.9098 37.6359C41.4559 37.6359 40.2732 36.4532 40.2732 34.9993C40.2732 33.855 41.0102 32.8886 42.031 32.5246V30.6049H43.7887V32.5246C44.8095 32.8886 45.5464 33.855 45.5464 34.9993H43.7887C43.7887 34.5144 43.3947 34.1204 42.9098 34.1204C42.4249 34.1204 42.031 34.5144 42.031 34.9993C42.031 35.4842 42.4249 35.8782 42.9098 35.8782Z" fill="#FF82AC"/>
</g>
<defs>
<clipPath id="clip0_2_1871">
<rect width="30" height="30" fill="white" transform="translate(20 20)"/>
</clipPath>
</defs>
</svg>
