<svg width="60" height="60" viewBox="0 0 60 60" fill="none" xmlns="http://www.w3.org/2000/svg">
<rect width="60" height="60" rx="20" fill="#FFF5D9"/>
<path d="M41.6295 29.5459V22.1314C41.6295 20.6091 40.3909 19.3705 38.8686 19.3705H20.7608C19.2385 19.3705 18 20.6091 18 22.1314V33.3865C18 34.9088 19.2385 36.1473 20.7608 36.1473H27.9206C28.8763 39.3155 31.8212 41.6296 35.2969 41.6296C39.5444 41.6296 42.9999 38.174 42.9999 33.9264C43 32.3002 42.493 30.7904 41.6295 29.5459ZM30.9164 27.5939H19.7007V25.1829H39.9288V27.7756C38.6387 26.8017 37.0342 26.2234 35.2969 26.2234C33.6708 26.2233 32.1609 26.7303 30.9164 27.5939ZM20.7608 21.0712H38.8686C39.4532 21.0712 39.9288 21.5468 39.9288 22.1314V23.4822H19.7007V22.1314C19.7007 21.5468 20.1763 21.0712 20.7608 21.0712ZM20.7608 34.4466C20.1763 34.4466 19.7007 33.9711 19.7007 33.3865V29.2945H29.146C28.1721 30.5846 27.5939 32.1892 27.5939 33.9264C27.5939 34.1014 27.6003 34.2747 27.6118 34.4467H20.7608V34.4466ZM35.297 39.9288C31.9872 39.9288 29.2945 37.2361 29.2945 33.9264C29.2945 30.6167 31.9872 27.924 35.297 27.924C38.6066 27.924 41.2993 30.6167 41.2993 33.9264C41.2993 37.2361 38.6066 39.9288 35.297 39.9288Z" fill="#FFBB38"/>
<path d="M31.1852 31.7055C30.7156 31.7055 30.3349 32.0862 30.3349 32.5558V35.2969C30.3349 35.7665 30.7156 36.1473 31.1852 36.1473H39.4085C39.8781 36.1473 40.2589 35.7665 40.2589 35.2969V32.5558C40.2589 32.0862 39.8781 31.7055 39.4085 31.7055H31.1852ZM38.5582 34.4467H32.0355V33.4063H38.5582V34.4467Z" fill="#FFBB38"/>
</svg>
