<svg width="70" height="70" viewBox="0 0 70 70" fill="none" xmlns="http://www.w3.org/2000/svg">
<circle cx="35" cy="35" r="35" fill="#E7EDFF"/>
<g clip-path="url(#clip0_2_699)">
<path d="M47.3171 24.0926C43.4209 24.0926 40.4389 23.1162 38.6234 22.297C36.6498 21.4065 35.5856 20.5029 35.5767 20.4953L35.0018 20L34.426 20.4938C34.4155 20.5029 33.3512 21.4066 31.3776 22.297C29.5622 23.1162 26.5802 24.0926 22.684 24.0926H21.8042V36.169L35.0005 49.9999L48.1969 36.1812V24.0926H47.3171ZM44.6778 32.3075C44.6778 33.6718 44.1477 34.9545 43.1849 35.9206L35.0005 44.4225L26.8162 35.9205C25.8533 34.9545 25.3232 33.6717 25.3232 32.3075V31.8501C25.3232 29.0279 27.6193 26.7318 30.4415 26.7318C31.7081 26.7318 32.9241 27.1984 33.8655 28.0457L34.9686 29.0385L35.7762 28.2309C36.743 27.2642 38.0283 26.7318 39.3954 26.7318H39.5595C42.3817 26.7318 44.6778 29.0278 44.6778 31.8501V32.3075H44.6778Z" fill="#396AFF"/>
<path d="M39.5596 28.4914H39.3955C38.4984 28.4914 37.6549 28.8408 37.0205 29.4751L35.0325 31.4631L32.6885 29.3536C32.0707 28.7975 31.2727 28.4913 30.4416 28.4913C28.5895 28.4913 27.0828 29.9981 27.0828 31.8501V32.3075C27.0828 33.2047 27.4321 34.0482 28.0665 34.6825L28.0782 34.6944L35.0005 41.8854L41.9346 34.6825C42.5689 34.0481 42.9183 33.2046 42.9183 32.3074V31.8501C42.9184 29.9982 41.4116 28.4914 39.5596 28.4914V28.4914ZM37.6398 36.4092H35.8803V38.1687H34.1208V36.4092H32.3613V34.6497H34.1208V32.8902H35.8803V34.6497H37.6398V36.4092Z" fill="#396AFF"/>
</g>
<defs>
<clipPath id="clip0_2_699">
<rect width="30" height="30" fill="white" transform="translate(20 20)"/>
</clipPath>
</defs>
</svg>
