<svg width="60" height="60" viewBox="0 0 60 60" fill="none" xmlns="http://www.w3.org/2000/svg">
<rect width="60" height="60" rx="20" fill="#FFE0EB"/>
<g clip-path="url(#clip0_2_763)">
<path d="M32.4923 33.3372C36.6873 33.3372 40.1002 29.8971 40.1002 25.6686C40.1002 21.4402 36.6873 18 32.4923 18C28.2974 18 24.8845 21.4401 24.8845 25.6686C24.8845 29.897 28.2974 33.3372 32.4923 33.3372ZM30.0477 28.0616C30.269 27.7233 30.7227 27.6283 31.061 27.8497C31.5539 28.1722 31.7399 28.2019 32.3903 28.1973C33.0252 28.1931 33.3936 27.7199 33.4672 27.282C33.503 27.069 33.5167 26.5489 32.872 26.321C32.1159 26.0536 31.3421 25.7481 30.8037 25.3259C30.2654 24.9036 30.0188 24.1746 30.1604 23.4236C30.3139 22.6094 30.8818 21.9612 31.6427 21.7321C31.6496 21.73 31.6563 21.7283 31.6632 21.7263V21.4488C31.6632 21.0446 31.9909 20.7168 32.3952 20.7168C32.7994 20.7168 33.1272 21.0446 33.1272 21.4488V21.6802C33.6243 21.7989 33.9715 22.0263 34.1125 22.1317C34.4363 22.3738 34.5026 22.8324 34.2605 23.1563C34.0185 23.4801 33.5598 23.5464 33.236 23.3042C33.086 23.1921 32.6714 22.951 32.0649 23.1338C31.7106 23.2405 31.6187 23.5901 31.599 23.6947C31.5603 23.9002 31.6037 24.0928 31.7072 24.1739C32.0803 24.4666 32.7521 24.7258 33.3599 24.9406C34.4808 25.3368 35.1041 26.3753 34.9109 27.5247C34.8161 28.0887 34.5323 28.6119 34.1119 28.9981C33.8256 29.2613 33.4923 29.4488 33.1272 29.556V29.8883C33.1272 30.2926 32.7994 30.6203 32.3952 30.6203C31.9909 30.6203 31.6632 30.2926 31.6632 29.8883V29.629C31.1899 29.5716 30.7926 29.4236 30.2595 29.0748C29.9213 28.8535 29.8264 28.3999 30.0477 28.0616V28.0616Z" fill="#FF82AC"/>
<path d="M20.7745 35.7968H19.1055C18.7013 35.7968 18.3735 36.1245 18.3735 36.5287V42.267C18.3735 42.6713 18.7013 42.999 19.1055 42.999H20.7746V35.7968H20.7745Z" fill="#FF82AC"/>
<path d="M42.4121 35.7457C41.0401 34.3737 38.8077 34.3736 37.4358 35.7457L35.2431 37.9384L34.3444 38.8371C33.9811 39.2003 33.4885 39.4044 32.9748 39.4044H28.6047C28.21 39.4044 27.8703 39.101 27.8517 38.7068C27.8319 38.2859 28.1673 37.9384 28.5839 37.9384H33.0259C33.919 37.9384 34.6937 37.3025 34.8472 36.4227C34.8825 36.2207 34.9009 36.0129 34.9009 35.801C34.9009 35.396 34.5728 35.0674 34.1679 35.0674H31.7339C30.9385 35.0674 30.1746 34.7065 29.3659 34.3244C28.5176 33.9238 27.6405 33.5094 26.6149 33.4412C25.7179 33.3814 24.8188 33.4796 23.9425 33.7327C23.0042 34.0036 22.3298 34.8372 22.248 35.7996C22.2449 35.7993 22.2417 35.7993 22.2385 35.7991V42.9965L34.8495 43C35.7166 43 36.5318 42.6623 37.145 42.0491L42.4119 36.7823C42.6983 36.4961 42.6983 36.0319 42.4121 35.7457V35.7457Z" fill="#FF82AC"/>
</g>
<defs>
<clipPath id="clip0_2_763">
<rect width="25" height="25" fill="white" transform="translate(18 18)"/>
</clipPath>
</defs>
</svg>
