<svg width="60" height="60" viewBox="0 0 60 60" fill="none" xmlns="http://www.w3.org/2000/svg">
<rect width="60" height="60" rx="20" fill="#E7EDFF"/>
<path d="M42.5022 30.7852C42.5033 29.9334 42.4313 29.0831 42.287 28.2437H30.4991V33.0577H37.2507C37.1125 33.8266 36.8201 34.5595 36.391 35.2124C35.962 35.8652 35.4052 36.4244 34.7542 36.8562V39.9811H38.7836C41.1429 37.8058 42.5022 34.5889 42.5022 30.7852Z" fill="#4471FF"/>
<path d="M30.4991 42.9999C33.8722 42.9999 36.7124 41.8923 38.7835 39.9826L34.7542 36.8577C33.6327 37.6181 32.1883 38.0521 30.4991 38.0521C27.2388 38.0521 24.4715 35.8543 23.482 32.8926H19.3311V36.113C20.3714 38.1832 21.9667 39.9235 23.9388 41.1396C25.9109 42.3557 28.1822 42.9998 30.4991 42.9999V42.9999Z" fill="#4471FF"/>
<path d="M23.4819 32.8926C22.9587 31.3407 22.9587 29.66 23.4819 28.1081V24.8877H19.331C18.4558 26.6292 18 28.5513 18 30.5004C18 32.4494 18.4558 34.3715 19.331 36.113L23.4819 32.8926Z" fill="#4471FF"/>
<path d="M30.4991 22.9486C32.2816 22.9195 34.0041 23.593 35.2941 24.8235L38.8617 21.2559C36.5994 19.1311 33.6025 17.9646 30.4991 18.0008C28.1822 18.0009 25.9109 18.645 23.9388 19.8611C21.9667 21.0772 20.3714 22.8175 19.3311 24.8877L23.482 28.1081C24.4715 25.1464 27.2388 22.9486 30.4991 22.9486V22.9486Z" fill="#4471FF"/>
</svg>
