<svg width="41" height="41" viewBox="0 0 41 41" fill="none" xmlns="http://www.w3.org/2000/svg">
<path d="M17.7188 17.2256H22.6221V25.0269C21.9537 25.3611 21.0625 25.4725 20.3941 25.4725C18.6117 25.4725 17.7188 24.5813 17.7188 22.5745V17.2256ZM40.1152 25.2331C37.583 35.9558 26.8387 42.5949 16.1176 40.0626C5.39496 37.532 -1.24416 26.786 1.28811 16.065C3.82039 5.34234 14.5647 -1.29677 25.2857 1.2355C36.0084 3.76778 42.6475 14.5121 40.1152 25.2331ZM29.755 15.4432C29.7482 15.0612 29.5934 14.6968 29.3233 14.4267C29.0532 14.1566 28.6888 14.0018 28.3068 13.995H25.6315L19.5029 6.9751C18.9459 6.3067 18.0547 6.0839 17.1635 6.3067L15.0452 6.97344C14.711 7.08484 14.5996 7.53044 14.8224 7.75324L21.5081 14.1047H11.3673C11.0331 14.1047 10.8103 14.3275 10.8103 14.6617V15.7757C10.8103 16.5555 11.4787 17.2239 12.2585 17.2239H13.8181V22.5728C13.8181 26.5849 15.9347 28.9243 19.5012 28.9243C20.6152 28.9243 21.5064 28.8129 22.6221 28.3673V31.9337C22.6221 32.9363 23.4019 33.7161 24.4045 33.7161H25.9641C26.1375 33.7045 26.3008 33.6303 26.4237 33.5074C26.5466 33.3845 26.6208 33.2212 26.6325 33.0477V17.1142H29.1963C29.5305 17.1142 29.7534 16.8914 29.7534 16.5572L29.755 15.4432Z" fill="#1814F3"/>
</svg>
