<svg width="25" height="25" viewBox="0 0 25 25" fill="none" xmlns="http://www.w3.org/2000/svg">
<g clip-path="url(#clip0_2_833)">
<path d="M22.0692 16.6948C21.3972 18.516 20.381 20.0995 19.0483 21.4008C17.5314 22.8821 15.5451 24.0591 13.1445 24.8987C13.0657 24.9262 12.9835 24.9487 12.9009 24.9653C12.7918 24.9868 12.6808 24.9985 12.5708 25H12.5492C12.4319 25 12.314 24.9882 12.1971 24.9653C12.1145 24.9487 12.0335 24.9262 11.9551 24.8993C9.55162 24.061 7.56283 22.8846 6.04438 21.4033C4.71115 20.1019 3.6951 18.5194 3.0241 16.6983C1.80396 13.3871 1.87339 9.73949 1.92928 6.80827L1.93023 6.76326C1.94148 6.52122 1.94873 6.26697 1.95274 5.9862C1.97315 4.60776 3.06911 3.46736 4.44774 3.39049C7.32212 3.23008 9.54571 2.29262 11.4456 0.440775L11.4622 0.425516C11.7777 0.136171 12.1752 -0.00573542 12.5708 0.000177388C12.9522 0.00513651 13.3322 0.146853 13.6364 0.425516L13.6526 0.440775C15.5529 2.29262 17.7765 3.23008 20.6509 3.39049C22.0295 3.46736 23.1255 4.60776 23.1459 5.9862C23.1499 6.26887 23.1571 6.52274 23.1684 6.76326L23.169 6.78233C23.2247 9.71908 23.2937 13.3739 22.0692 16.6948Z" fill="#16DBCC"/>
<path d="M22.0692 16.6948C21.3972 18.516 20.381 20.0995 19.0483 21.4008C17.5314 22.8821 15.5451 24.0591 13.1445 24.8987C13.0658 24.9262 12.9836 24.9487 12.901 24.9653C12.7919 24.9869 12.6809 24.9985 12.5708 25V0.000183105C12.9523 0.00514223 13.3322 0.146858 13.6364 0.425522L13.6526 0.440781C15.5529 2.29263 17.7765 3.23009 20.6509 3.3905C22.0295 3.46736 23.1255 4.60777 23.1459 5.98621C23.1499 6.26888 23.1572 6.52275 23.1684 6.76327L23.169 6.78234C23.2247 9.71909 23.2937 13.3739 22.0692 16.6948Z" fill="#16DBCC"/>
<path d="M18.7794 12.5C18.7794 15.9281 15.996 18.7186 12.5708 18.7308H12.5488C9.11352 18.7308 6.31812 15.9355 6.31812 12.5C6.31812 9.06469 9.11352 6.26947 12.5488 6.26947H12.5708C15.996 6.28168 18.7794 9.07213 18.7794 12.5Z" fill="white"/>
<path d="M16.377 11.4969L12.5954 14.8518L11.7783 15.5766C11.5852 15.7478 11.332 15.8333 11.0791 15.8333C10.8259 15.8333 10.573 15.7478 10.3797 15.5766L8.62281 14.0175C8.23673 13.675 8.23673 13.1203 8.62281 12.7776C9.00838 12.4351 9.63453 12.4351 10.0206 12.7776L11.0791 13.7165L14.9792 10.257C15.3653 9.91433 15.9915 9.91433 16.377 10.257C16.7631 10.5995 16.7631 11.1549 16.377 11.4969Z" fill="#16DBCC"/>
</g>
<defs>
<clipPath id="clip0_2_833">
<rect width="25" height="25" fill="white"/>
</clipPath>
</defs>
</svg>
