<svg width="387" height="161" viewBox="0 0 387 161" fill="none" xmlns="http://www.w3.org/2000/svg">
<path d="M6.66138 154L81.8795 69L154.128 107L228.852 6L303.08 83L379.783 44" stroke="#FCAA0B" stroke-width="3" stroke-linecap="round" stroke-linejoin="round"/>
<path d="M10.6049 155C10.6049 157.5 8.60327 159.5 6.16667 159.5C3.73006 159.5 1.72839 157.5 1.72839 155C1.72839 152.5 3.73006 150.5 6.16667 150.5C8.60327 150.5 10.6049 152.5 10.6049 155Z" fill="white" stroke="#EDA10D" stroke-width="3"/>
<path d="M86.8126 70C86.8126 72.4999 84.8109 74.5 82.3743 74.5C79.9377 74.5 77.936 72.4999 77.936 70C77.936 67.5001 79.9377 65.5 82.3743 65.5C84.8109 65.5 86.8126 67.5001 86.8126 70Z" fill="white" stroke="#EDA10D" stroke-width="3"/>
<path d="M158.072 106C158.072 108.5 156.07 110.5 153.634 110.5C151.197 110.5 149.195 108.5 149.195 106C149.195 103.5 151.197 101.5 153.634 101.5C156.07 101.5 158.072 103.5 158.072 106Z" fill="white" stroke="#EDA10D" stroke-width="3"/>
<path d="M234.28 6C234.28 8.49994 232.278 10.5 229.841 10.5C227.405 10.5 225.403 8.49994 225.403 6C225.403 3.50006 227.405 1.5 229.841 1.5C232.278 1.5 234.28 3.50006 234.28 6Z" fill="white" stroke="#EDA10D" stroke-width="3"/>
<path d="M308.508 82C308.508 84.4999 306.506 86.5 304.07 86.5C301.633 86.5 299.632 84.4999 299.632 82C299.632 79.5001 301.633 77.5 304.07 77.5C306.506 77.5 308.508 79.5001 308.508 82Z" fill="white" stroke="#EDA10D" stroke-width="3"/>
<path d="M384.716 43C384.716 45.4999 382.714 47.5 380.278 47.5C377.841 47.5 375.839 45.4999 375.839 43C375.839 40.5001 377.841 38.5 380.278 38.5C382.714 38.5 384.716 40.5001 384.716 43Z" fill="white" stroke="#EDA10D" stroke-width="3"/>
</svg>
