<svg width="80" height="56" viewBox="0 0 80 56" fill="none" xmlns="http://www.w3.org/2000/svg">
<g clip-path="url(#clip0_2_3262)">
<path d="M7.375 22.125H10.125L8.75 18.625L7.375 22.125Z" fill="white"/>
<path d="M41.5 19.125C41.25 19 40.875 19 40.5 19H38V21H40.5C40.875 21 41.25 21 41.5 20.875C41.75 20.75 41.875 20.375 41.875 20C42 19.5 41.75 19.25 41.5 19.125Z" fill="white"/>
<path d="M68.25 15.375V16.875L67.5 15.375H61.625V16.875L60.875 15.375H52.875C51.5 15.375 50.375 15.625 49.375 16.125V15.375H43.75V16.125C43.125 15.625 42.375 15.375 41.375 15.375H21.25L19.875 18.5L18.5 15.375H12.125V16.875L11.375 15.375H6L3.5 21.25L0.625 27.75H7L7.75 25.75H9.5L10.25 27.75H17.5V26.25L18.125 27.75H21.75L22.375 26.25V27.75H39.75V24.5H40C40.25 24.5 40.25 24.5 40.25 24.875V27.625H49.25V26.875C50 27.25 51.125 27.625 52.625 27.625H56.375L57.125 25.625H58.875L59.625 27.625H66.875V25.75L68 27.625H73.875V15.375H68.25V15.375ZM26 25.875H23.875V19L20.875 25.875H19L16 19V25.875H11.75L10.875 24H6.625L5.875 26H3.5L7.25 17.125H10.375L13.875 25.5V17.125H17.25L20 23.125L22.5 17.125H26V25.875V25.875ZM34.5 19H29.625V20.625H34.375V22.375H29.625V24.125H34.5V26H27.5V17.125H34.5V19V19ZM43.875 22.625C44.125 23.125 44.25 23.5 44.25 24.25V26H42.125V24.875C42.125 24.375 42.125 23.625 41.75 23.125C41.375 22.75 41 22.75 40.25 22.75H38V26H35.875V17.125H40.625C41.75 17.125 42.5 17.125 43.125 17.5C43.75 17.875 44.125 18.5 44.125 19.5C44.125 20.875 43.25 21.625 42.625 21.875C43.25 22 43.625 22.375 43.875 22.625V22.625ZM47.625 25.875H45.5V17H47.625V25.875ZM72.25 25.875H69.25L65.25 19.25V25.875H61L60.25 24H55.875L55.125 26H52.75C51.75 26 50.5 25.75 49.75 25C49 24.25 48.625 23.25 48.625 21.625C48.625 20.375 48.875 19.125 49.75 18.125C50.375 17.375 51.5 17.125 52.875 17.125H54.875V19H52.875C52.125 19 51.75 19.125 51.25 19.5C50.875 19.875 50.625 20.625 50.625 21.5C50.625 22.5 50.75 23.125 51.25 23.625C51.625 24 52.125 24.125 52.75 24.125H53.625L56.5 17.25H59.625L63.125 25.625V17.25H66.25L69.875 23.375V17.25H72V25.875H72.25Z" fill="white"/>
<path d="M56.625 22.125H59.5L58.125 18.625L56.625 22.125ZM35.375 40.125V33L32.125 36.5L35.375 40.125Z" fill="white"/>
<path d="M22 33.875V35.5H26.625V37.25H22V39.125H27.125L29.5 36.5L27.25 33.875H22Z" fill="white"/>
<path d="M40.125 33.875H37.5V36.125H40.25C41 36.125 41.5 35.75 41.5 35C41.375 34.25 40.875 33.875 40.125 33.875Z" fill="white"/>
<path d="M78.75 36V30.375H73.5C72.375 30.375 71.5 30.625 70.875 31.125V30.375H65.125C64.25 30.375 63.125 30.625 62.625 31.125V30.375H52.5V31.125C51.75 30.5 50.375 30.375 49.75 30.375H43V31.125C42.375 30.5 40.875 30.375 40.125 30.375H32.625L30.875 32.25L29.25 30.375H18V42.625H29L30.75 40.75L32.375 42.625H39.125V39.75H40C40.875 39.75 42 39.75 42.875 39.375V42.75H48.5V39.5H48.75C49.125 39.5 49.125 39.5 49.125 39.875V42.75H66.125C67.25 42.75 68.375 42.5 69 42V42.75H74.375C75.5 42.75 76.625 42.625 77.375 42.125C78.625 41.375 79.375 40 79.375 38.375C79.375 37.5 79.125 36.625 78.75 36ZM40 38H37.5V41H33.5L31 38.125L28.375 41H20.125V32.125H28.5L31 35L33.625 32.125H40.25C41.875 32.125 43.75 32.625 43.75 35C43.625 37.5 41.875 38 40 38V38ZM52.5 37.5C52.75 37.875 52.875 38.375 52.875 39.125V40.875H50.75V39.75C50.75 39.25 50.75 38.375 50.375 38C50.125 37.625 49.625 37.625 48.875 37.625H46.625V40.875H44.5V32H49.25C50.25 32 51.125 32 51.75 32.375C52.375 32.75 52.875 33.375 52.875 34.375C52.875 35.75 52 36.5 51.375 36.75C52 37 52.375 37.25 52.5 37.5V37.5ZM61.125 33.875H56.25V35.5H61V37.25H56.25V39H61.125V40.875H54.125V32H61.125V33.875V33.875ZM66.375 40.875H62.375V39H66.375C66.75 39 67 39 67.25 38.75C67.375 38.625 67.5 38.375 67.5 38.125C67.5 37.875 67.375 37.625 67.25 37.5C67.125 37.375 66.875 37.25 66.5 37.25C64.5 37.125 62.125 37.25 62.125 34.5C62.125 33.25 62.875 31.875 65.125 31.875H69.25V34H65.375C65 34 64.75 34 64.5 34.125C64.25 34.25 64.25 34.5 64.25 34.75C64.25 35.125 64.5 35.25 64.75 35.375C65 35.5 65.25 35.5 65.5 35.5H66.625C67.75 35.5 68.5 35.75 69 36.25C69.375 36.625 69.625 37.25 69.625 38.125C69.625 40 68.5 40.875 66.375 40.875V40.875ZM77.125 40C76.625 40.5 75.75 40.875 74.5 40.875H70.5V39H74.5C74.875 39 75.125 39 75.375 38.75C75.5 38.625 75.625 38.375 75.625 38.125C75.625 37.875 75.5 37.625 75.375 37.5C75.25 37.375 75 37.25 74.625 37.25C72.625 37.125 70.25 37.25 70.25 34.5C70.25 33.25 71 31.875 73.25 31.875H77.375V34H73.625C73.25 34 73 34 72.75 34.125C72.5 34.25 72.5 34.5 72.5 34.75C72.5 35.125 72.625 35.25 73 35.375C73.25 35.5 73.5 35.5 73.75 35.5H74.875C76 35.5 76.75 35.75 77.25 36.25C77.375 36.25 77.375 36.375 77.375 36.375C77.75 36.875 77.875 37.5 77.875 38.125C77.875 38.875 77.625 39.5 77.125 40V40Z" fill="white"/>
<path d="M50.25 34.125C50 34 49.625 34 49.25 34H46.75V36H49.25C49.625 36 50 36 50.25 35.875C50.5 35.75 50.625 35.375 50.625 35C50.75 34.5 50.5 34.25 50.25 34.125V34.125Z" fill="white"/>
<path d="M41.5 19.125C41.25 19 40.875 19 40.5 19H38V21H40.5C40.875 21 41.25 21 41.5 20.875C41.75 20.75 41.875 20.375 41.875 20C42 19.5 41.75 19.25 41.5 19.125ZM56.625 22.125H59.5L58.125 18.625L56.625 22.125ZM35.375 40.125V33L32.125 36.5L35.375 40.125ZM40.125 33.875H37.5V36.125H40.25C41 36.125 41.5 35.75 41.5 35C41.375 34.25 40.875 33.875 40.125 33.875ZM50.25 34.125C50 34 49.625 34 49.25 34H46.75V36H49.25C49.625 36 50 36 50.25 35.875C50.5 35.75 50.625 35.375 50.625 35C50.75 34.5 50.5 34.25 50.25 34.125V34.125Z" fill="white"/>
<path d="M39.25 40.625L37.5 38.75V40.875H33.375L30.875 38L28.125 40.875H19.875V32.125H28.25L30.875 35L32.125 33.5L29 30.375H18V42.625H29L30.875 40.75L32.5 42.625H39.25V40.625Z" fill="white"/>
<path d="M26.25 27.625L24.625 25.875H23.875V25.125L22 23.25L20.75 25.875H19L16 19V25.875H11.75L10.875 24H6.625L5.75 25.875H3.5L7.25 17.125H10.375L13.875 25.5V17.125H15.75L14 15.375H12.125V16.875L11.5 15.375H6L3.5 21.25L0.625 27.625H7.125L7.875 25.75H9.625L10.5 27.625H17.5V26.125L18.125 27.625H21.75L22.375 26.125V27.625H26.25Z" fill="white"/>
<path d="M20.5 21.875L18.5 19.875L20 23.125L20.5 21.875Z" fill="white"/>
<path d="M77.375 42C78.5 41.25 79.25 40 79.375 38.625L77.625 36.875C77.75 37.25 77.875 37.625 77.875 38.125C77.875 38.875 77.625 39.5 77.125 40C76.625 40.5 75.75 40.875 74.5 40.875H70.5V39H74.5C74.875 39 75.125 39 75.375 38.75C75.5 38.625 75.625 38.375 75.625 38.125C75.625 37.875 75.5 37.625 75.375 37.5C75.25 37.375 75 37.25 74.625 37.25C72.625 37.125 70.25 37.25 70.25 34.5C70.25 33.25 71 32.125 72.875 31.875L71.5 30.5C71.25 30.625 71.125 30.75 71 30.75V30H65.25C64.375 30 63.25 30.25 62.75 30.75V30H52.5V30.75C51.75 30.125 50.375 30 49.75 30H43V30.75C42.375 30.125 40.875 30 40.125 30H32.625L30.875 31.875L29.25 30H27.875L31.625 33.75L33.5 31.75H40.125C41.75 31.75 43.625 32.25 43.625 34.625C43.625 37.125 41.875 37.625 40 37.625H37.5V39.5L39.375 41.375V39.5H40C40.875 39.5 42 39.5 42.875 39.125V42.5H48.5V39.25H48.75C49.125 39.25 49.125 39.25 49.125 39.625V42.5H66.125C67.25 42.5 68.375 42.25 69 41.75V42.5H74.375C75.375 42.625 76.5 42.5 77.375 42V42ZM52.5 37.5C52.75 37.875 52.875 38.375 52.875 39.125V40.875H50.75V39.75C50.75 39.25 50.75 38.375 50.375 38C50.125 37.625 49.625 37.625 48.875 37.625H46.625V40.875H44.5V32H49.25C50.25 32 51.125 32 51.75 32.375C52.375 32.75 52.875 33.375 52.875 34.375C52.875 35.75 52 36.5 51.375 36.75C52 37 52.375 37.25 52.5 37.5V37.5ZM61.125 33.875H56.25V35.5H61V37.25H56.25V39H61.125V40.875H54.125V32H61.125V33.875ZM66.375 40.875H62.375V39H66.375C66.75 39 67 39 67.25 38.75C67.375 38.625 67.5 38.375 67.5 38.125C67.5 37.875 67.375 37.625 67.25 37.5C67.125 37.375 66.875 37.25 66.5 37.25C64.5 37.125 62.125 37.25 62.125 34.5C62.125 33.25 62.875 31.875 65.125 31.875H69.25V34H65.375C65 34 64.75 34 64.5 34.125C64.25 34.25 64.25 34.5 64.25 34.75C64.25 35.125 64.5 35.25 64.75 35.375C65 35.5 65.25 35.5 65.5 35.5H66.625C67.75 35.5 68.5 35.75 69 36.25C69.375 36.625 69.625 37.25 69.625 38.125C69.625 40 68.5 40.875 66.375 40.875V40.875Z" fill="white"/>
<path d="M72.375 34.75C72.375 35.125 72.5 35.25 72.875 35.375C73.125 35.5 73.375 35.5 73.625 35.5H74.75C75.5 35.5 76 35.625 76.5 35.875L74.625 34H73.5C73.125 34 72.875 34 72.625 34.125C72.5 34.25 72.375 34.5 72.375 34.75Z" fill="white"/>
<path d="M68 27.25L68.25 27.625H68.375L68 27.25ZM61.125 20.375L63.25 25.5V22.5L61.125 20.375Z" fill="white"/>
<path d="M39.75 24.5H40C40.25 24.5 40.25 24.5 40.25 24.875V27.625H49.25V26.875C50 27.25 51.125 27.625 52.625 27.625H56.375L57.125 25.625H58.875L59.625 27.625H66.875V26.375L65.125 24.625V26H60.875L60.25 24H55.875L55.125 26H52.75C51.75 26 50.5 25.75 49.75 25C49 24.25 48.625 23.25 48.625 21.625C48.625 20.375 48.875 19.125 49.75 18.125C50.375 17.375 51.5 17.125 52.875 17.125H54.875V19H52.875C52.125 19 51.75 19.125 51.25 19.5C50.875 19.875 50.625 20.625 50.625 21.5C50.625 22.5 50.75 23.125 51.25 23.625C51.625 24 52.125 24.125 52.75 24.125H53.625L56.5 17.25H57.75L56 15.5H52.75C51.375 15.5 50.25 15.75 49.25 16.25V15.5H43.75V16.25C43.125 15.75 42.375 15.5 41.375 15.5H21.25L19.875 18.625L18.5 15.5H13L14.75 17.25H17.25L19.375 21.875L20.125 22.625L22.375 17.125H25.875V26H23.75V19.125L21.625 24.125L25.25 27.75H39.625L39.75 24.5ZM45.5 17.125H47.625V26H45.5V17.125ZM34.5 19H29.625V20.625H34.375V22.375H29.625V24.125H34.5V26H27.5V17.125H34.5V19ZM38 25.875H35.875V17H40.625C41.75 17 42.5 17 43.125 17.375C43.75 17.75 44.125 18.375 44.125 19.375C44.125 20.75 43.25 21.5 42.625 21.75C43.125 21.875 43.5 22.25 43.625 22.5C43.875 23 44 23.375 44 24.125V25.875H41.875V24.75C41.875 24.25 41.875 23.5 41.5 23C41.375 22.75 41 22.75 40.25 22.75H38V25.875V25.875Z" fill="white"/>
</g>
<defs>
<clipPath id="clip0_2_3262">
<rect width="80" height="56" fill="white"/>
</clipPath>
</defs>
</svg>
