<svg width="80" height="71" viewBox="0 0 80 71" fill="none" xmlns="http://www.w3.org/2000/svg">
<g clip-path="url(#clip0_2_3287)">
<path d="M10.9387 28.3834H8V37.5424H10.9227C12.4773 37.5424 13.6 37.2135 14.5867 36.4845C15.7573 35.6183 16.448 34.3167 16.448 32.9677C16.448 30.2649 14.1867 28.3834 10.9387 28.3834V28.3834ZM13.28 35.2633C12.6507 35.7698 11.8347 35.9899 10.5413 35.9899H10V29.9336H10.5387C11.832 29.9336 12.6187 30.1419 13.2773 30.6744C13.9707 31.2258 14.3867 32.0778 14.3867 32.9558C14.3867 33.8339 13.9707 34.7119 13.2773 35.2633H13.28ZM17.3707 28.3834H19.3707V37.5424H17.3707V28.3834ZM24.2667 31.8979C23.0667 31.5003 22.7147 31.24 22.7147 30.7454C22.7147 30.1679 23.3413 29.7277 24.2053 29.7277C24.8053 29.7277 25.2987 29.9502 25.8187 30.4708L26.8667 29.2473C26.0389 28.5888 24.9649 28.2269 23.8533 28.232C22.0347 28.232 20.6507 29.3561 20.6507 30.8566C20.6507 32.118 21.2933 32.7641 23.176 33.3653C23.9573 33.6138 24.3573 33.7771 24.56 33.8883C24.96 34.1226 25.16 34.4516 25.16 34.835C25.16 35.5781 24.4987 36.1272 23.6053 36.1272C22.6507 36.1272 21.88 35.7012 21.4187 34.906L20.1253 36.0183C21.048 37.2253 22.1573 37.7602 23.68 37.7602C25.76 37.7602 27.2213 36.5271 27.2213 34.7545C27.2213 33.299 26.544 32.6411 24.2667 31.8979V31.8979ZM33.2693 37.7483C34.1307 37.7483 34.8693 37.5969 35.7787 37.2135V35.1119C34.9787 35.8266 34.2693 36.113 33.3627 36.113C31.3467 36.113 29.9147 34.8113 29.9147 32.9558C29.9147 31.1974 31.392 29.8082 33.2693 29.8082C34.224 29.8082 34.9493 30.1158 35.7787 30.84V28.7384C34.8987 28.3408 34.1787 28.1752 33.3173 28.1752C30.2827 28.1752 27.8507 30.3052 27.8507 32.9677C27.8507 35.6609 30.2213 37.7483 33.2693 37.7483V37.7483ZM52.1627 37.7767L56.5973 28.3811H54.4267L51.6533 34.5344L48.9173 28.3811H46.7307L51.0853 37.7767H52.1627ZM63.1813 35.9899H59.5013V33.5191H63.0453V31.9666H59.5013V29.9336H63.1813V28.3834H57.5013V37.5424H63.1813V35.9899ZM66.5067 33.8623H66.768L69.5387 37.5401H72L68.768 33.6824C70.2773 33.4102 71.1067 32.4896 71.1067 31.0862C71.1067 29.3727 69.784 28.3834 67.4747 28.3834H64.5067V37.5424H66.5067V33.8623ZM66.5067 29.8247H67.12C68.368 29.8247 69.048 30.291 69.048 31.1832C69.048 32.1038 68.368 32.5985 67.0907 32.5985H66.504V29.8247H66.5067Z" fill="white"/>
<path d="M74.6667 9.46667H5.33333C2.392 9.46667 0 11.5896 0 14.2V56.8C0 59.4104 2.392 61.5333 5.33333 61.5333H74.6667C77.608 61.5333 80 59.4104 80 56.8V14.2C80 11.5896 77.608 9.46667 74.6667 9.46667ZM2.66667 56.8V14.2C2.66667 12.896 3.86133 11.8333 5.33333 11.8333H74.6667C76.1387 11.8333 77.3333 12.896 77.3333 14.2V37.559C71.184 42.0486 54.464 52.8524 28.6747 59.1667H5.33333C3.86133 59.1667 2.66667 58.104 2.66667 56.8ZM77.3333 56.8C77.3333 58.104 76.136 59.1667 74.6667 59.1667H37.8373C57.4533 53.2547 70.8267 45.1513 77.3333 40.6144V56.8Z" fill="white"/>
<path d="M41.8932 37.8667C44.9066 37.8667 47.3546 35.6846 47.3546 32.9913C47.3574 31.7031 46.7837 30.4666 45.7596 29.5537C44.7354 28.6408 43.3447 28.1262 41.8932 28.1231C41.1743 28.1247 40.4627 28.2519 39.7992 28.4975C39.1356 28.7431 38.5331 29.1023 38.026 29.5546C37.5188 30.0068 37.117 30.5433 36.8435 31.1334C36.57 31.7235 36.4301 32.3556 36.4319 32.9937C36.4319 35.6846 38.8772 37.8643 41.8932 37.8643V37.8667ZM41.8932 30.4898C43.4346 30.4898 44.6879 31.6116 44.6879 32.9937C44.6879 34.3758 43.4346 35.4976 41.8932 35.4976C40.3519 35.4976 39.0986 34.3758 39.0986 32.9937C39.0986 31.6116 40.3519 30.4898 41.8932 30.4898V30.4898Z" fill="white"/>
</g>
<defs>
<clipPath id="clip0_2_3287">
<rect width="80" height="71" fill="white"/>
</clipPath>
</defs>
</svg>
