<svg width="80" height="56" viewBox="0 0 80 56" fill="none" xmlns="http://www.w3.org/2000/svg">
<path d="M40.4986 13.0379C42.744 14.8031 44.559 17.0567 45.8062 19.6282C47.0535 22.1997 47.7003 25.0217 47.6978 27.8805C47.6995 30.7384 47.0523 33.5593 45.805 36.1297C44.5578 38.7002 42.7432 40.9529 40.4986 42.7175C38.2536 40.9526 36.4388 38.6995 35.1916 36.1285C33.9443 33.5575 33.2973 30.7361 33.2994 27.8777C33.2973 25.0194 33.9443 22.198 35.1916 19.627C36.4388 17.056 38.2536 14.8028 40.4986 13.0379V13.0379ZM38.0859 11.4215C35.7092 13.4534 33.8013 15.9779 32.4942 18.8206C31.187 21.6633 30.5118 24.7564 30.5151 27.8861C30.5119 31.0144 31.1867 34.1061 32.4928 36.9478C33.799 39.7894 35.7054 42.3133 38.0804 44.3451C35.2112 45.9582 31.9705 46.7912 28.6802 46.7611C25.39 46.7311 22.165 45.8391 19.3256 44.1739C16.4863 42.5086 14.1316 40.1281 12.4956 37.2689C10.8595 34.4098 9.99917 31.1716 10 27.8762C10.0008 24.5808 10.8628 21.343 12.5003 18.4847C14.1378 15.6264 16.4937 13.247 19.3339 11.5832C22.174 9.91942 25.3996 9.02908 28.6898 9.0007C31.98 8.97232 35.2204 9.8069 38.0887 11.4215H38.0859ZM42.9168 44.3451C45.2919 42.3133 47.1983 39.7894 48.5044 36.9478C49.8106 34.1061 50.4853 31.0144 50.4821 27.8861C50.4854 24.7564 49.8102 21.6633 48.5031 18.8206C47.1959 15.9779 45.288 13.4534 42.9113 11.4215C45.7796 9.8069 49.02 8.97232 52.3102 9.0007C55.6005 9.02908 58.826 9.91942 61.6661 11.5832C64.5063 13.247 66.8622 15.6264 68.4997 18.4847C70.1372 21.343 70.9992 24.5808 71 27.8762C71.0008 31.1716 70.1405 34.4098 68.5045 37.2689C66.8684 40.1281 64.5137 42.5086 61.6744 44.1739C58.835 45.8391 55.61 46.7311 52.3198 46.7611C49.0295 46.7912 45.7888 45.9582 42.9196 44.3451H42.9168Z" fill="white"/>
</svg>
