<svg width="29" height="52" viewBox="0 0 29 52" fill="none" xmlns="http://www.w3.org/2000/svg">
<path fill-rule="evenodd" clip-rule="evenodd" d="M8.27078 27L8.42301 26.6348L8.44467 26.5828L8.44468 26.5828C9.74417 23.4656 11.0558 20.3191 12.1608 17H29V15H12.7933C14.1062 10.6074 15 5.87781 15 0.5H13C13 10.4343 9.8303 18.0611 6.57699 25.8652L6.55533 25.9172C6.40506 26.2777 6.25462 26.6385 6.10436 27H6V27.2513C2.94753 34.6054 0 42.2339 0 52H2C2 48.0156 2.50989 44.4024 3.33055 41H29V39H3.85375C4.82992 35.5325 6.10113 32.2598 7.44158 29H29V27H8.27078Z" fill="#0F0F0F" fill-opacity="0.64"/>
</svg>
